Coordinates
version=1
nRows=24
nColumns=24
inDegrees=yes

Units are S.I. units (second, meters, Newtons, ...)
Angles are in degrees.

endheader
time	pelvis_tilt	pelvis_list	pelvis_rotation	pelvis_tx	pelvis_ty	pelvis_tz	hip_flexion_r	hip_adduction_r	hip_rotation_r	knee_angle_r	ankle_angle_r	subtalar_angle_r	mtp_angle_r	hip_flexion_l	hip_adduction_l	hip_rotation_l	knee_angle_l	ankle_angle_l	subtalar_angle_l	mtp_angle_l	lumbar_extension	lumbar_bending	lumbar_rotation
      1.31700000	     -2.47439722	      4.60090035	     -3.04962456	      0.26451270	      0.90782748	      0.32158877	     16.06504055	    -10.26012926	    -11.16820446	    -71.15622862	     -1.64729231	      5.14281564	     12.77831648	     12.11955888	      8.51106745	     -2.67497365	    -16.89597802	      8.61955806	     -7.16096032	      2.03971251	     -5.01337930	     -6.92124316	      3.71449781
      1.32116667	     -2.48374610	      4.38291282	     -2.89463643	      0.26955350	      0.90889821	      0.32133895	     16.66148814	    -10.02972097	    -11.40829464	    -70.87416645	     -1.02734651	      5.01552514	     12.63638734	     11.50067614	      8.34706548	     -2.39295731	    -16.38607027	      8.64813476	     -7.16470964	      2.05049690	     -5.06656913	     -6.63696886	      3.35438204
      1.32533333	     -2.53452288	      4.18096533	     -2.76294653	      0.27459686	      0.90986795	      0.32116386	     17.30447910	     -9.79409972	    -11.60749613	    -70.53851166	     -0.41755031	      4.83319316	     12.60069465	     10.94134165	      8.17324616	     -2.23139325	    -15.89515065	      8.65858236	     -7.04390613	      2.05525183	     -5.02178366	     -6.41385868	      3.25483331
      1.32950000	     -2.51273934	      3.94704807	     -2.58910656	      0.27964131	      0.91094164	      0.32089039	     17.82327604	     -9.54670860	    -11.87332733	    -70.10821329	      0.12590470	      4.72459412	     12.46199838	     10.28372866	      7.98901765	     -1.93652199	    -15.36983264	      8.68685078	     -7.04346293	      2.06630904	     -5.11052733	     -6.11325700	      2.88353584
      1.33366667	     -2.51710108	      3.71936207	     -2.41701424	      0.28467326	      0.91194276	      0.32064353	     18.35958609	     -9.29288425	    -12.12456130	    -69.61509647	      0.67376028	      4.60081700	     12.33837921	      9.66747172	      7.79776936	     -1.69420502	    -14.86191405	      8.69580273	     -6.99485047	      2.07568720	     -5.14646754	     -5.83873383	      2.63508604
      1.33783333	     -2.51474058	      3.48841743	     -2.23760562	      0.28967084	      0.91290919	      0.32038407	     18.87677688	     -9.03622500	    -12.38353498	    -69.06522789	      1.20849906	      4.47761459	     12.24731422	      9.05447667	      7.59867924	     -1.45916665	    -14.36661103	      8.70062900	     -6.91588224	      2.08307741	     -5.20841696	     -5.53883868	      2.41885752
      1.34200000	     -2.48325387	      3.24192337	     -2.04160403	      0.29470988	      0.91391460	      0.32013615	     19.32170558	     -8.76135207	    -12.66848915	    -68.41819045	      1.70037032	      4.37268183	     12.14936199	      8.40319623	      7.37853564	     -1.22003795	    -13.86162651	      8.71542852	     -6.86089510	      2.09037509	     -5.26685004	     -5.27689516	      2.15213919
      1.34616667	     -2.43846557	      3.00778168	     -1.84250758	      0.29971080	      0.91488058	      0.31984507	     19.74796284	     -8.50931908	    -12.95643693	    -67.73013085	      2.16135985	      4.27343250	     12.02946189	      7.73465039	      7.17446572	     -0.95768405	    -13.33670495	      8.72450911	     -6.81150291	      2.09866644	     -5.37059926	     -4.97270118	      1.83997798
      1.35033333	     -2.39416137	      2.77243591	     -1.63517265	      0.30470504	      0.91580246	      0.31956260	     20.15559548	     -8.25226714	    -13.25060116	    -66.97684672	      2.61353320	      4.17618782	     11.90098848	      7.07472539	      6.96130431	     -0.70768916	    -12.82366779	      8.72504541	     -6.75539591	      2.10777783	     -5.46541468	     -4.68423276	      1.54665793
      1.35450000	     -2.35557954	      2.52109139	     -1.41112444	      0.30967442	      0.91668348	      0.31928627	     20.54421653	     -7.97210784	    -13.55688947	    -66.14904565	      3.06728500	      4.08632163	     11.81915647	      6.44682409	      6.72026867	     -0.48967834	    -12.35725921	      8.71663192	     -6.67299502	      2.11382158	     -5.54597777	     -4.40382879	      1.33167288
      1.35866667	     -2.26700021	      2.28933536	     -1.19368961	      0.31465038	      0.91757600	      0.31897190	     20.87001152	     -7.72714784	    -13.86719891	    -65.27737359	      3.43638715	      3.99482302	     11.69814405	      5.73433705	      6.50558147	     -0.22808155	    -11.82136184	      8.74715216	     -6.61102522	      2.12291928	     -5.70051619	     -4.09729907	      0.98677639
      1.36283333	     -2.18841693	      2.06749154	     -0.96148271	      0.31959080	      0.91840492	      0.31868025	     21.19106423	     -7.48407756	    -14.17706735	    -64.35104885	      3.83788554	      3.89376187	     11.50924185	      5.04862773	      6.29310228	      0.03314090	    -11.30482355	      8.70868226	     -6.57429450	      2.13497874	     -5.84721790	     -3.83552176	      0.60811245
      1.36700000	     -2.10559515	      1.82769464	     -0.72685811	      0.32453497	      0.91919419	      0.31837763	     21.48479421	     -7.22364953	    -14.49894816	    -63.35296838	      4.16842562	      3.82018520	     11.38867665	      4.37349602	      6.05256783	      0.25272700	    -10.82064304	      8.75672687	     -6.48782104	      2.14517901	     -5.97614143	     -3.53035145	      0.36717665
      1.37116667	     -2.01033129	      1.60177799	     -0.48897110	      0.32946291	      0.91994139	      0.31807981	     21.75272075	     -6.97562080	    -14.81657341	    -62.30735293	      4.49067312	      3.73003076	     11.27117910	      3.68640462	      5.82070682	      0.47140946	    -10.32904747	      8.77346807	     -6.39925369	      2.15573291	     -6.12837149	     -3.24942926	      0.07299574
      1.37533333	     -1.92454919	      1.37370540	     -0.23734712	      0.33436145	      0.92062372	      0.31779130	     22.01198010	     -6.72030589	    -15.13857123	    -61.20181168	      4.81029244	      3.63934965	     11.17832552	      3.03340727	      5.57728677	      0.66966183	     -9.87793447	      8.77010235	     -6.30157050	      2.16515346	     -6.27231712	     -2.97440521	     -0.18731737
      1.37950000	     -1.82883524	      1.18711764	      0.00602956	      0.33926206	      0.92123797	      0.31748401	     22.26136248	     -6.51604111	    -15.44405081	    -60.07623697	      5.08614839	      3.56675556	     10.80125031	      2.33446808	      5.38346002	      0.94528040	     -9.34521353	      8.75577521	     -6.31142975	      2.20322330	     -6.42505836	     -2.73005126	     -0.68485380
      1.38366667	     -1.72650520	      0.97839898	      0.25301336	      0.34414446	      0.92181714	      0.31721445	     22.47791316	     -6.27521313	    -15.75281991	    -58.87391447	      5.33681077	      3.44412582	     10.72472584	      1.67426671	      5.14577697	      1.10118940	     -8.90490729	      8.79158371	     -6.15343581	      2.21462789	     -6.58471001	     -2.47208717	     -0.83422907
      1.38783333	     -1.61479894	      0.78980835	      0.49487314	      0.34902963	      0.92234346	      0.31695665	     22.67481056	     -6.05149197	    -16.04603736	    -57.63253122	      5.54646477	      3.32600937	     10.64295187	      0.99261647	      4.92606356	      1.27045562	     -8.43614512	      8.82440038	     -6.01399687	      2.22791827	     -6.75586913	     -2.23065156	     -1.11057246
      1.39200000	     -1.49161517	      0.63844261	      0.72313234	      0.35390647	      0.92280136	      0.31671890	     22.85911017	     -5.86206638	    -16.30967484	    -56.36806798	      5.71687818	      3.19232797	     10.51250995	      0.28499714	      4.74391070	      1.45567805	     -7.93598960	      8.86726782	     -5.90303187	      2.25089749	     -6.94233350	     -2.03429290	     -1.49121319
      1.39616667	     -1.40254397	      0.46841647	      0.97178991	      0.35876254	      0.92316975	      0.31646845	     23.05282263	     -5.65215559	    -16.59173179	    -55.03380666	      5.89033585	      3.08273146	     10.42679652	     -0.34973868	      4.53271760	      1.60908065	     -7.50057930	      8.88631667	     -5.77880334	      2.26849526	     -7.08049563	     -1.81445587	     -1.74219978
      1.40033333	     -1.30645866	      0.32688521	      1.20658287	      0.36362974	      0.92347098	      0.31625548	     23.23280918	     -5.46245877	    -16.84304321	    -53.67084518	      6.03375319	      2.95053756	     10.34532172	     -1.00207708	      4.34588832	      1.75904265	     -7.04514096	      8.90937051	     -5.64229935	      2.28724507	     -7.22579570	     -1.62693419	     -2.02314410
      1.40450000	     -1.20961440	      0.20149665	      1.43350784	      0.36849710	      0.92370487	      0.31605843	     23.40199834	     -5.28340770	    -17.07658987	    -52.27022110	      6.14453897	      2.81359199	     10.26172225	     -1.65585110	      4.17227888	      1.89600212	     -6.58718746	      8.94243823	     -5.50446480	      2.30859129	     -7.37182117	     -1.46117413	     -2.32096537
      1.40866667	     -1.12255443	      0.09143381	      1.65542557	      0.37336093	      0.92385945	      0.31588484	     23.56940950	     -5.11336090	    -17.29181665	    -50.83116216	      6.23682010	      2.67511290	     10.17951616	     -2.29469551	      4.00971946	      2.02354129	     -6.13497844	      8.97445752	     -5.36177169	      2.33225296	     -7.50323175	     -1.31216432	     -2.61196639
      1.41283333	     -1.03780975	     -0.00213241	      1.86761724	      0.37823422	      0.92393942	      0.31573452	     23.72946195	     -4.95265938	    -17.48552212	    -49.36127574	      6.30519225	      2.52740152	     10.09573781	     -2.93310001	      3.86055971	      2.13809751	     -5.68008318	      9.00879971	     -5.21858966	      2.35893742	     -7.63343684	     -1.18370251	     -2.90372556
